{
	"asset":{
		"generator":"Khronos glTF Blender I/O v4.5.48",
		"version":"2.0"
	},
	"scene":0,
	"scenes":[
		{
			"name":"Scene",
			"nodes":[
				0
			]
		}
	],
	"nodes":[
		{
			"mesh":0,
			"name":"Chain",
			"rotation":[
				0.6756002306938171,
				0,
				0,
				0.7372681498527527
			],
			"translation":[
				0,
				67.73390197753906,
				0
			]
		}
	],
	"materials":[
		{
			"doubleSided":true,
			"name":"Material.001",
			"normalTexture":{
				"index":0
			},
			"pbrMetallicRoughness":{
				"baseColorTexture":{
					"index":1
				},
				"metallicRoughnessTexture":{
					"index":2
				}
			}
		}
	],
	"meshes":[
		{
			"name":"Chain",
			"primitives":[
				{
					"attributes":{
						"POSITION":0,
						"NORMAL":1
					},
					"indices":2,
					"material":0
				}
			]
		}
	],
	"textures":[
		{
			"sampler":0,
			"source":0
		},
		{
			"sampler":0,
			"source":1
		},
		{
			"sampler":0,
			"source":2
		}
	],
	"images":[
		{
			"mimeType":"image/png",
			"name":"Poliigon_MetalGoldPaint_7253_Normal",
			"uri":"Poliigon_MetalGoldPaint_7253_Normal.png"
		},
		{
			"mimeType":"image/jpeg",
			"name":"Poliigon_MetalGoldPaint_7253_BaseColor",
			"uri":"Poliigon_MetalGoldPaint_7253_BaseColor.jpg"
		},
		{
			"mimeType":"image/png",
			"name":"Poliigon_MetalGoldPaint_7253_Metallic-Poliigon_MetalGoldPaint_7253_Roughness",
			"uri":"Poliigon_MetalGoldPaint_7253_Metallic-Poliigon_MetalGoldPaint_7253_Roughness.png"
		}
	],
	"accessors":[
		{
			"bufferView":0,
			"componentType":5126,
			"count":7906,
			"max":[
				54.991241455078125,
				20.983489990234375,
				67.30130004882812
			],
			"min":[
				-83.35755920410156,
				-0.10972382873296738,
				-77.01283264160156
			],
			"type":"VEC3"
		},
		{
			"bufferView":1,
			"componentType":5126,
			"count":7906,
			"type":"VEC3"
		},
		{
			"bufferView":2,
			"componentType":5123,
			"count":7908,
			"type":"SCALAR"
		}
	],
	"bufferViews":[
		{
			"buffer":0,
			"byteLength":94872,
			"byteOffset":0,
			"target":34962
		},
		{
			"buffer":0,
			"byteLength":94872,
			"byteOffset":94872,
			"target":34962
		},
		{
			"buffer":0,
			"byteLength":15816,
			"byteOffset":189744,
			"target":34963
		}
	],
	"samplers":[
		{
			"magFilter":9729,
			"minFilter":9987
		}
	],
	"buffers":[
		{
			"byteLength":205560,
			"uri":"cadena.bin"
		}
	]
}
