{
	"asset":{
		"generator":"Khronos glTF Blender I/O v4.5.48",
		"version":"2.0"
	},
	"scene":0,
	"scenes":[
		{
			"name":"Scene",
			"nodes":[
				0
			]
		}
	],
	"nodes":[
		{
			"mesh":0,
			"name":"colosseo_stl",
			"rotation":[
				0.7071068286895752,
				0,
				0,
				0.7071068286895752
			]
		}
	],
	"materials":[
		{
			"doubleSided":true,
			"name":"Material.001",
			"normalTexture":{
				"index":0
			},
			"pbrMetallicRoughness":{
				"baseColorTexture":{
					"index":1
				},
				"metallicRoughnessTexture":{
					"index":2
				}
			}
		}
	],
	"meshes":[
		{
			"name":"colosseo_stl",
			"primitives":[
				{
					"attributes":{
						"POSITION":0,
						"NORMAL":1
					},
					"indices":2,
					"material":0
				}
			]
		}
	],
	"textures":[
		{
			"sampler":0,
			"source":0
		},
		{
			"sampler":0,
			"source":1
		},
		{
			"sampler":0,
			"source":2
		}
	],
	"images":[
		{
			"mimeType":"image/png",
			"name":"Poliigon_MetalGoldPaint_7253_Normal",
			"uri":"Poliigon_MetalGoldPaint_7253_Normal.png"
		},
		{
			"mimeType":"image/jpeg",
			"name":"Poliigon_MetalGoldPaint_7253_BaseColor",
			"uri":"Poliigon_MetalGoldPaint_7253_BaseColor.jpg"
		},
		{
			"mimeType":"image/png",
			"name":"Poliigon_MetalGoldPaint_7253_Metallic-Poliigon_MetalGoldPaint_7253_Roughness",
			"uri":"Poliigon_MetalGoldPaint_7253_Metallic-Poliigon_MetalGoldPaint_7253_Roughness.png"
		}
	],
	"accessors":[
		{
			"bufferView":0,
			"componentType":5126,
			"count":3690,
			"max":[
				39.276241302490234,
				9.542332649230957,
				-0.05191347748041153
			],
			"min":[
				0.05637992545962334,
				-0.05907702445983887,
				-39.898799896240234
			],
			"type":"VEC3"
		},
		{
			"bufferView":1,
			"componentType":5126,
			"count":3690,
			"type":"VEC3"
		},
		{
			"bufferView":2,
			"componentType":5123,
			"count":3690,
			"type":"SCALAR"
		}
	],
	"bufferViews":[
		{
			"buffer":0,
			"byteLength":44280,
			"byteOffset":0,
			"target":34962
		},
		{
			"buffer":0,
			"byteLength":44280,
			"byteOffset":44280,
			"target":34962
		},
		{
			"buffer":0,
			"byteLength":7380,
			"byteOffset":88560,
			"target":34963
		}
	],
	"samplers":[
		{
			"magFilter":9729,
			"minFilter":9987
		}
	],
	"buffers":[
		{
			"byteLength":95940,
			"uri":"moneda.bin"
		}
	]
}
