{
	"asset":{
		"generator":"Khronos glTF Blender I/O v4.5.48",
		"version":"2.0"
	},
	"scene":0,
	"scenes":[
		{
			"name":"Scene",
			"nodes":[
				0
			]
		}
	],
	"nodes":[
		{
			"mesh":0,
			"name":"Hourglass",
			"translation":[
				0,
				0.6724576950073242,
				0
			]
		}
	],
	"materials":[
		{
			"doubleSided":true,
			"name":"Material.001",
			"normalTexture":{
				"index":0
			},
			"pbrMetallicRoughness":{
				"baseColorTexture":{
					"index":1
				},
				"metallicRoughnessTexture":{
					"index":2
				}
			}
		}
	],
	"meshes":[
		{
			"name":"Hourglass",
			"primitives":[
				{
					"attributes":{
						"POSITION":0,
						"NORMAL":1
					},
					"indices":2,
					"material":0
				}
			]
		}
	],
	"textures":[
		{
			"sampler":0,
			"source":0
		},
		{
			"sampler":0,
			"source":1
		},
		{
			"sampler":0,
			"source":2
		}
	],
	"images":[
		{
			"mimeType":"image/png",
			"name":"Poliigon_MetalGoldPaint_7253_Normal",
			"uri":"Poliigon_MetalGoldPaint_7253_Normal.png"
		},
		{
			"mimeType":"image/jpeg",
			"name":"Poliigon_MetalGoldPaint_7253_BaseColor",
			"uri":"Poliigon_MetalGoldPaint_7253_BaseColor.jpg"
		},
		{
			"mimeType":"image/png",
			"name":"Poliigon_MetalGoldPaint_7253_Metallic-Poliigon_MetalGoldPaint_7253_Roughness",
			"uri":"Poliigon_MetalGoldPaint_7253_Metallic-Poliigon_MetalGoldPaint_7253_Roughness.png"
		}
	],
	"accessors":[
		{
			"bufferView":0,
			"componentType":5126,
			"count":9330,
			"max":[
				0.5044811367988586,
				0.759640097618103,
				-0.243401899933815
			],
			"min":[
				-0.5037105083465576,
				-0.7397383451461792,
				-1.2523013353347778
			],
			"type":"VEC3"
		},
		{
			"bufferView":1,
			"componentType":5126,
			"count":9330,
			"type":"VEC3"
		},
		{
			"bufferView":2,
			"componentType":5123,
			"count":9330,
			"type":"SCALAR"
		}
	],
	"bufferViews":[
		{
			"buffer":0,
			"byteLength":111960,
			"byteOffset":0,
			"target":34962
		},
		{
			"buffer":0,
			"byteLength":111960,
			"byteOffset":111960,
			"target":34962
		},
		{
			"buffer":0,
			"byteLength":18660,
			"byteOffset":223920,
			"target":34963
		}
	],
	"samplers":[
		{
			"magFilter":9729,
			"minFilter":9987
		}
	],
	"buffers":[
		{
			"byteLength":242580,
			"uri":"reloj.bin"
		}
	]
}
