{
	"asset":{
		"generator":"Khronos glTF Blender I/O v4.5.48",
		"version":"2.0"
	},
	"extensionsUsed":[
		"KHR_texture_transform"
	],
	"extensionsRequired":[
		"KHR_texture_transform"
	],
	"scene":0,
	"scenes":[
		{
			"name":"Scene",
			"nodes":[
				0,
				1,
				2,
				3,
				4,
				5,
				6,
				7,
				8,
				9,
				10,
				11,
				12,
				13,
				14,
				15
			]
		}
	],
	"nodes":[
		{
			"mesh":0,
			"name":"textura.001",
			"rotation":[
				-0.9248794317245483,
				-0.03256305679678917,
				0.3735206127166748,
				0.0634041428565979
			],
			"scale":[
				10.09696102142334,
				11.186962127685547,
				11.186960220336914
			],
			"translation":[
				-18.909645080566406,
				61.50991439819336,
				-6.488079071044922
			]
		},
		{
			"mesh":1,
			"name":"rocas",
			"rotation":[
				0,
				-0.9999995827674866,
				0,
				0.000931902730371803
			],
			"scale":[
				12.618908882141113,
				12.618908882141113,
				12.618908882141113
			],
			"translation":[
				140.74375915527344,
				21.03214454650879,
				-193.14955139160156
			]
		},
		{
			"mesh":2,
			"name":"Cube",
			"rotation":[
				0,
				1,
				0,
				0
			],
			"scale":[
				-360.8851623535156,
				-7.267385482788086,
				-360.8851623535156
			],
			"translation":[
				-15.1907958984375,
				-4.524024963378906,
				9.505950927734375
			]
		},
		{
			"mesh":3,
			"name":"Landscape.019",
			"scale":[
				5.127586364746094,
				55.91827392578125,
				5.127586364746094
			],
			"translation":[
				64.61273956298828,
				1.7576684951782227,
				-211.90554809570312
			]
		},
		{
			"mesh":4,
			"name":"Landscape.003",
			"scale":[
				5.127586364746094,
				55.91827392578125,
				5.127586364746094
			],
			"translation":[
				-154.13726806640625,
				1.7576684951782227,
				-211.90554809570312
			]
		},
		{
			"mesh":5,
			"name":"rocas.001",
			"rotation":[
				0,
				-0.08480356633663177,
				0,
				0.9963976740837097
			],
			"scale":[
				18.68082046508789,
				12.618908882141113,
				18.247798919677734
			],
			"translation":[
				-348.3673400878906,
				21.03214454650879,
				257.02703857421875
			]
		},
		{
			"mesh":6,
			"name":"Monta\u00f1as",
			"rotation":[
				0,
				-0.800600528717041,
				0,
				0.5991984605789185
			],
			"scale":[
				131.2639923095703,
				284.33599853515625,
				98.54838562011719
			],
			"translation":[
				172.34747314453125,
				0,
				-86.73744201660156
			]
		},
		{
			"mesh":7,
			"name":"Landscape.005",
			"scale":[
				244.69338989257812,
				524.1651000976562,
				140.49212646484375
			],
			"translation":[
				0,
				0,
				-288.29425048828125
			]
		},
		{
			"mesh":8,
			"name":"Landscape.012",
			"rotation":[
				0,
				-0.6878182888031006,
				0,
				0.7258829474449158
			],
			"scale":[
				132.232177734375,
				215.98780822753906,
				132.232177734375
			],
			"translation":[
				389.4188232421875,
				34.09429168701172,
				-81.1871566772461
			]
		},
		{
			"mesh":9,
			"name":"Landscape.001",
			"rotation":[
				0,
				-0.6279354095458984,
				0,
				0.7782654762268066
			],
			"scale":[
				132.23216247558594,
				215.98780822753906,
				132.23216247558594
			],
			"translation":[
				-505.758544921875,
				34.09429168701172,
				163.84371948242188
			]
		},
		{
			"mesh":10,
			"name":"Landscape.014",
			"scale":[
				674.117919921875,
				510.8506774902344,
				263.4788818359375
			],
			"translation":[
				-59.687625885009766,
				-17.23891830444336,
				549.0589599609375
			]
		},
		{
			"mesh":11,
			"name":"Landscape.002",
			"rotation":[
				0,
				-0.5685871839523315,
				0,
				0.8226230144500732
			],
			"scale":[
				431.3125305175781,
				510.8507080078125,
				263.4788818359375
			],
			"translation":[
				478.69024658203125,
				-17.23891830444336,
				369.7589111328125
			]
		},
		{
			"mesh":12,
			"name":"MONTA\u00d1A",
			"rotation":[
				0,
				0.06123042851686478,
				0,
				0.9981236457824707
			],
			"scale":[
				219.25177001953125,
				147.72569274902344,
				144.10104370117188
			],
			"translation":[
				-41.14724349975586,
				-11.692756652832031,
				-279.93377685546875
			]
		},
		{
			"mesh":13,
			"name":"Landscape.004",
			"rotation":[
				0,
				-0.5685871839523315,
				0,
				0.8226230144500732
			],
			"scale":[
				431.3125305175781,
				510.8507080078125,
				263.4788818359375
			],
			"translation":[
				382.1302490234375,
				-17.23891830444336,
				-464.84588623046875
			]
		},
		{
			"mesh":14,
			"name":"Landscape.006",
			"rotation":[
				0,
				-0.8347300291061401,
				0,
				0.5506594181060791
			],
			"scale":[
				431.3125305175781,
				510.8507080078125,
				263.4788818359375
			],
			"translation":[
				-519.8851318359375,
				-17.23891830444336,
				-386.8697204589844
			]
		},
		{
			"mesh":15,
			"name":"columnas",
			"scale":[
				3.8455278873443604,
				3.8455278873443604,
				3.8455278873443604
			],
			"translation":[
				15.863327026367188,
				145.2480010986328,
				3.9019851684570312
			]
		}
	],
	"materials":[
		{
			"doubleSided":true,
			"name":"Material.007",
			"normalTexture":{
				"index":0
			},
			"pbrMetallicRoughness":{
				"baseColorTexture":{
					"index":1
				},
				"metallicFactor":0,
				"metallicRoughnessTexture":{
					"index":2
				}
			}
		},
		{
			"doubleSided":true,
			"name":"Material.002",
			"normalTexture":{
				"extensions":{
					"KHR_texture_transform":{
						"offset":[
							0,
							-6
						],
						"scale":[
							7,
							7
						]
					}
				},
				"index":3
			},
			"pbrMetallicRoughness":{
				"baseColorTexture":{
					"extensions":{
						"KHR_texture_transform":{
							"offset":[
								0,
								-6
							],
							"scale":[
								7,
								7
							]
						}
					},
					"index":4
				},
				"metallicFactor":0,
				"metallicRoughnessTexture":{
					"extensions":{
						"KHR_texture_transform":{
							"offset":[
								0,
								-6
							],
							"scale":[
								7,
								7
							]
						}
					},
					"index":5
				}
			}
		},
		{
			"doubleSided":true,
			"name":"Material",
			"normalTexture":{
				"index":6
			},
			"pbrMetallicRoughness":{
				"baseColorTexture":{
					"index":7
				},
				"metallicFactor":0,
				"metallicRoughnessTexture":{
					"index":8
				}
			}
		},
		{
			"doubleSided":true,
			"name":"suelo-roca",
			"normalTexture":{
				"index":9
			},
			"pbrMetallicRoughness":{
				"baseColorTexture":{
					"index":10
				},
				"metallicFactor":0,
				"metallicRoughnessTexture":{
					"index":11
				}
			}
		}
	],
	"meshes":[
		{
			"name":"Landscape.004",
			"primitives":[
				{
					"attributes":{
						"POSITION":0,
						"NORMAL":1
					},
					"indices":2
				}
			]
		},
		{
			"name":"Landscape.022",
			"primitives":[
				{
					"attributes":{
						"POSITION":3,
						"NORMAL":4,
						"TEXCOORD_0":5
					},
					"indices":6,
					"material":0
				}
			]
		},
		{
			"name":"Cube.011",
			"primitives":[
				{
					"attributes":{
						"POSITION":7,
						"NORMAL":8,
						"TEXCOORD_0":9
					},
					"indices":10,
					"material":1
				}
			]
		},
		{
			"name":"Landscape.019",
			"primitives":[
				{
					"attributes":{
						"POSITION":11,
						"NORMAL":12,
						"TEXCOORD_0":13
					},
					"indices":14,
					"material":2
				}
			]
		},
		{
			"name":"Landscape.021",
			"primitives":[
				{
					"attributes":{
						"POSITION":15,
						"NORMAL":16,
						"TEXCOORD_0":17
					},
					"indices":14,
					"material":2
				}
			]
		},
		{
			"name":"Landscape.023",
			"primitives":[
				{
					"attributes":{
						"POSITION":18,
						"NORMAL":19,
						"TEXCOORD_0":20
					},
					"indices":6,
					"material":0
				}
			]
		},
		{
			"name":"Landscape",
			"primitives":[
				{
					"attributes":{
						"POSITION":21,
						"NORMAL":22
					},
					"indices":23
				}
			]
		},
		{
			"name":"Landscape.005",
			"primitives":[
				{
					"attributes":{
						"POSITION":24,
						"NORMAL":25,
						"COLOR_0":26
					},
					"indices":27
				}
			]
		},
		{
			"name":"Landscape.012",
			"primitives":[
				{
					"attributes":{
						"POSITION":28,
						"NORMAL":29,
						"TEXCOORD_0":30
					},
					"indices":31,
					"material":2
				}
			]
		},
		{
			"name":"Landscape.013",
			"primitives":[
				{
					"attributes":{
						"POSITION":32,
						"NORMAL":33,
						"TEXCOORD_0":34
					},
					"indices":35,
					"material":2
				}
			]
		},
		{
			"name":"Landscape.014",
			"primitives":[
				{
					"attributes":{
						"POSITION":36,
						"NORMAL":37,
						"TEXCOORD_0":38
					},
					"indices":39,
					"material":2
				}
			]
		},
		{
			"name":"Landscape.015",
			"primitives":[
				{
					"attributes":{
						"POSITION":40,
						"NORMAL":41,
						"TEXCOORD_0":42
					},
					"indices":39,
					"material":2
				}
			]
		},
		{
			"name":"Landscape.018",
			"primitives":[
				{
					"attributes":{
						"POSITION":43,
						"NORMAL":44,
						"TEXCOORD_0":45
					},
					"indices":46,
					"material":3
				}
			]
		},
		{
			"name":"Landscape.007",
			"primitives":[
				{
					"attributes":{
						"POSITION":47,
						"NORMAL":48,
						"TEXCOORD_0":49
					},
					"indices":39,
					"material":2
				}
			]
		},
		{
			"name":"Landscape.017",
			"primitives":[
				{
					"attributes":{
						"POSITION":50,
						"NORMAL":51,
						"TEXCOORD_0":52
					},
					"indices":39,
					"material":2
				}
			]
		},
		{
			"name":"Cylinder",
			"primitives":[
				{
					"attributes":{
						"POSITION":53,
						"NORMAL":54,
						"TEXCOORD_0":55
					},
					"indices":56
				}
			]
		}
	],
	"textures":[
		{
			"sampler":0,
			"source":0
		},
		{
			"sampler":0,
			"source":1
		},
		{
			"sampler":0,
			"source":2
		},
		{
			"sampler":0,
			"source":3
		},
		{
			"sampler":0,
			"source":4
		},
		{
			"sampler":0,
			"source":5
		},
		{
			"sampler":0,
			"source":6
		},
		{
			"sampler":0,
			"source":7
		},
		{
			"sampler":0,
			"source":8
		},
		{
			"sampler":0,
			"source":9
		},
		{
			"sampler":0,
			"source":10
		},
		{
			"sampler":0,
			"source":11
		}
	],
	"images":[
		{
			"mimeType":"image/jpeg",
			"name":"Rock060_2K-JPG_NormalGL",
			"uri":"Rock060_2K-JPG_NormalGL.jpg"
		},
		{
			"mimeType":"image/jpeg",
			"name":"Rock060_2K-JPG_Color",
			"uri":"Rock060_2K-JPG_Color.jpg"
		},
		{
			"mimeType":"image/png",
			"name":"Rock060_2K-JPG_Roughness",
			"uri":"Rock060_2K-JPG_Roughness.png"
		},
		{
			"mimeType":"image/jpeg",
			"name":"Ground079S_2K-JPG_NormalGL",
			"uri":"Ground079S_2K-JPG_NormalGL.jpg"
		},
		{
			"mimeType":"image/jpeg",
			"name":"Ground079S_2K-JPG_Color",
			"uri":"Ground079S_2K-JPG_Color.jpg"
		},
		{
			"mimeType":"image/png",
			"name":"Ground079S_2K-JPG_Roughness",
			"uri":"Ground079S_2K-JPG_Roughness.png"
		},
		{
			"mimeType":"image/jpeg",
			"name":"Rock035_2K-JPG_NormalGL",
			"uri":"Rock035_2K-JPG_NormalGL.jpg"
		},
		{
			"mimeType":"image/jpeg",
			"name":"Rock035_2K-JPG_Color",
			"uri":"Rock035_2K-JPG_Color.jpg"
		},
		{
			"mimeType":"image/png",
			"name":"Rock035_2K-JPG_Roughness",
			"uri":"Rock035_2K-JPG_Roughness.png"
		},
		{
			"mimeType":"image/jpeg",
			"name":"Rock058_2K-JPG_NormalGL",
			"uri":"Rock058_2K-JPG_NormalGL.jpg"
		},
		{
			"mimeType":"image/jpeg",
			"name":"Rock058_2K-JPG_Color",
			"uri":"Rock058_2K-JPG_Color.jpg"
		},
		{
			"mimeType":"image/png",
			"name":"Rock058_2K-JPG_Roughness",
			"uri":"Rock058_2K-JPG_Roughness.png"
		}
	],
	"accessors":[
		{
			"bufferView":0,
			"componentType":5126,
			"count":131072,
			"max":[
				1.000328540802002,
				2.843376398086548,
				1.0003631114959717
			],
			"min":[
				-7.787251949310303,
				-0.9394811987876892,
				-12.131933212280273
			],
			"type":"VEC3"
		},
		{
			"bufferView":1,
			"componentType":5126,
			"count":131072,
			"type":"VEC3"
		},
		{
			"bufferView":2,
			"componentType":5125,
			"count":774192,
			"type":"SCALAR"
		},
		{
			"bufferView":3,
			"componentType":5126,
			"count":5986,
			"max":[
				33.8226203918457,
				2.6325840950012207,
				3.3167200088500977
			],
			"min":[
				-2.281830310821533,
				-1.8079296350479126,
				-6.434231758117676
			],
			"type":"VEC3"
		},
		{
			"bufferView":4,
			"componentType":5126,
			"count":5986,
			"type":"VEC3"
		},
		{
			"bufferView":5,
			"componentType":5126,
			"count":5986,
			"type":"VEC2"
		},
		{
			"bufferView":6,
			"componentType":5123,
			"count":24600,
			"type":"SCALAR"
		},
		{
			"bufferView":7,
			"componentType":5126,
			"count":24,
			"max":[
				1,
				1,
				1
			],
			"min":[
				-1,
				-1,
				-1
			],
			"type":"VEC3"
		},
		{
			"bufferView":8,
			"componentType":5126,
			"count":24,
			"type":"VEC3"
		},
		{
			"bufferView":9,
			"componentType":5126,
			"count":24,
			"type":"VEC2"
		},
		{
			"bufferView":10,
			"componentType":5123,
			"count":36,
			"type":"SCALAR"
		},
		{
			"bufferView":11,
			"componentType":5126,
			"count":204800,
			"max":[
				1,
				1,
				48.114288330078125
			],
			"min":[
				-1,
				-0.046314626932144165,
				-1
			],
			"type":"VEC3"
		},
		{
			"bufferView":12,
			"componentType":5126,
			"count":204800,
			"type":"VEC3"
		},
		{
			"bufferView":13,
			"componentType":5126,
			"count":204800,
			"type":"VEC2"
		},
		{
			"bufferView":14,
			"componentType":5125,
			"count":1213488,
			"type":"SCALAR"
		},
		{
			"bufferView":15,
			"componentType":5126,
			"count":204800,
			"max":[
				1,
				1,
				48.114288330078125
			],
			"min":[
				-1,
				-0.046314626932144165,
				-1
			],
			"type":"VEC3"
		},
		{
			"bufferView":16,
			"componentType":5126,
			"count":204800,
			"type":"VEC3"
		},
		{
			"bufferView":17,
			"componentType":5126,
			"count":204800,
			"type":"VEC2"
		},
		{
			"bufferView":18,
			"componentType":5126,
			"count":5986,
			"max":[
				33.8226203918457,
				2.6325840950012207,
				3.3167200088500977
			],
			"min":[
				-2.281830310821533,
				-1.8079296350479126,
				-6.434231758117676
			],
			"type":"VEC3"
		},
		{
			"bufferView":19,
			"componentType":5126,
			"count":5986,
			"type":"VEC3"
		},
		{
			"bufferView":20,
			"componentType":5126,
			"count":5986,
			"type":"VEC2"
		},
		{
			"bufferView":21,
			"componentType":5126,
			"count":4057,
			"max":[
				4.435145378112793,
				0.6403129696846008,
				5.922684192657471
			],
			"min":[
				-1.9903367757797241,
				-0.04278978705406189,
				-2.4924018383026123
			],
			"type":"VEC3"
		},
		{
			"bufferView":22,
			"componentType":5126,
			"count":4057,
			"type":"VEC3"
		},
		{
			"bufferView":23,
			"componentType":5123,
			"count":24189,
			"type":"SCALAR"
		},
		{
			"bufferView":24,
			"componentType":5126,
			"count":16384,
			"max":[
				1.004726529121399,
				0.4760649800300598,
				1.0250134468078613
			],
			"min":[
				-1.071754813194275,
				-0.026930171996355057,
				-1.0000050067901611
			],
			"type":"VEC3"
		},
		{
			"bufferView":25,
			"componentType":5126,
			"count":16384,
			"type":"VEC3"
		},
		{
			"bufferView":26,
			"componentType":5123,
			"count":16384,
			"normalized":true,
			"type":"VEC4"
		},
		{
			"bufferView":27,
			"componentType":5123,
			"count":96774,
			"type":"SCALAR"
		},
		{
			"bufferView":28,
			"componentType":5126,
			"count":23057,
			"max":[
				3.3400001525878906,
				1.090000033378601,
				1.149999976158142
			],
			"min":[
				-3.3400001525878906,
				-0.23999999463558197,
				-1.149999976158142
			],
			"type":"VEC3"
		},
		{
			"bufferView":29,
			"componentType":5126,
			"count":23057,
			"type":"VEC3"
		},
		{
			"bufferView":30,
			"componentType":5126,
			"count":23057,
			"type":"VEC2"
		},
		{
			"bufferView":31,
			"componentType":5123,
			"count":98496,
			"type":"SCALAR"
		},
		{
			"bufferView":32,
			"componentType":5126,
			"count":16684,
			"max":[
				3.3400001525878906,
				1.090000033378601,
				1.149999976158142
			],
			"min":[
				-3.3400001525878906,
				-0.23999999463558197,
				-1.149999976158142
			],
			"type":"VEC3"
		},
		{
			"bufferView":33,
			"componentType":5126,
			"count":16684,
			"type":"VEC3"
		},
		{
			"bufferView":34,
			"componentType":5126,
			"count":16684,
			"type":"VEC2"
		},
		{
			"bufferView":35,
			"componentType":5123,
			"count":98496,
			"type":"SCALAR"
		},
		{
			"bufferView":36,
			"componentType":5126,
			"count":4437,
			"max":[
				1,
				0.7197247743606567,
				1
			],
			"min":[
				-1,
				0,
				-1
			],
			"type":"VEC3"
		},
		{
			"bufferView":37,
			"componentType":5126,
			"count":4437,
			"type":"VEC3"
		},
		{
			"bufferView":38,
			"componentType":5126,
			"count":4437,
			"type":"VEC2"
		},
		{
			"bufferView":39,
			"componentType":5123,
			"count":25800,
			"type":"SCALAR"
		},
		{
			"bufferView":40,
			"componentType":5126,
			"count":4437,
			"max":[
				1,
				0.7197247743606567,
				1
			],
			"min":[
				-1,
				0,
				-1
			],
			"type":"VEC3"
		},
		{
			"bufferView":41,
			"componentType":5126,
			"count":4437,
			"type":"VEC3"
		},
		{
			"bufferView":42,
			"componentType":5126,
			"count":4437,
			"type":"VEC2"
		},
		{
			"bufferView":43,
			"componentType":5126,
			"count":8797,
			"max":[
				1.112065076828003,
				3.2187888622283936,
				0.7894737124443054
			],
			"min":[
				-1.1571086645126343,
				-0.05999943986535072,
				-2.4741766452789307
			],
			"type":"VEC3"
		},
		{
			"bufferView":44,
			"componentType":5126,
			"count":8797,
			"type":"VEC3"
		},
		{
			"bufferView":45,
			"componentType":5126,
			"count":8797,
			"type":"VEC2"
		},
		{
			"bufferView":46,
			"componentType":5123,
			"count":51066,
			"type":"SCALAR"
		},
		{
			"bufferView":47,
			"componentType":5126,
			"count":4437,
			"max":[
				1,
				0.7197247743606567,
				1
			],
			"min":[
				-1,
				0,
				-1
			],
			"type":"VEC3"
		},
		{
			"bufferView":48,
			"componentType":5126,
			"count":4437,
			"type":"VEC3"
		},
		{
			"bufferView":49,
			"componentType":5126,
			"count":4437,
			"type":"VEC2"
		},
		{
			"bufferView":50,
			"componentType":5126,
			"count":4437,
			"max":[
				1,
				0.7197247743606567,
				1
			],
			"min":[
				-1,
				0,
				-1
			],
			"type":"VEC3"
		},
		{
			"bufferView":51,
			"componentType":5126,
			"count":4437,
			"type":"VEC3"
		},
		{
			"bufferView":52,
			"componentType":5126,
			"count":4437,
			"type":"VEC2"
		},
		{
			"bufferView":53,
			"componentType":5126,
			"count":2316,
			"max":[
				1,
				10.441177368164062,
				15.450129508972168
			],
			"min":[
				-21.70092010498047,
				-0.7690296173095703,
				-15.887988090515137
			],
			"type":"VEC3"
		},
		{
			"bufferView":54,
			"componentType":5126,
			"count":2316,
			"type":"VEC3"
		},
		{
			"bufferView":55,
			"componentType":5126,
			"count":2316,
			"type":"VEC2"
		},
		{
			"bufferView":56,
			"componentType":5123,
			"count":4872,
			"type":"SCALAR"
		}
	],
	"bufferViews":[
		{
			"buffer":0,
			"byteLength":1572864,
			"byteOffset":0,
			"target":34962
		},
		{
			"buffer":0,
			"byteLength":1572864,
			"byteOffset":1572864,
			"target":34962
		},
		{
			"buffer":0,
			"byteLength":3096768,
			"byteOffset":3145728,
			"target":34963
		},
		{
			"buffer":0,
			"byteLength":71832,
			"byteOffset":6242496,
			"target":34962
		},
		{
			"buffer":0,
			"byteLength":71832,
			"byteOffset":6314328,
			"target":34962
		},
		{
			"buffer":0,
			"byteLength":47888,
			"byteOffset":6386160,
			"target":34962
		},
		{
			"buffer":0,
			"byteLength":49200,
			"byteOffset":6434048,
			"target":34963
		},
		{
			"buffer":0,
			"byteLength":288,
			"byteOffset":6483248,
			"target":34962
		},
		{
			"buffer":0,
			"byteLength":288,
			"byteOffset":6483536,
			"target":34962
		},
		{
			"buffer":0,
			"byteLength":192,
			"byteOffset":6483824,
			"target":34962
		},
		{
			"buffer":0,
			"byteLength":72,
			"byteOffset":6484016,
			"target":34963
		},
		{
			"buffer":0,
			"byteLength":2457600,
			"byteOffset":6484088,
			"target":34962
		},
		{
			"buffer":0,
			"byteLength":2457600,
			"byteOffset":8941688,
			"target":34962
		},
		{
			"buffer":0,
			"byteLength":1638400,
			"byteOffset":11399288,
			"target":34962
		},
		{
			"buffer":0,
			"byteLength":4853952,
			"byteOffset":13037688,
			"target":34963
		},
		{
			"buffer":0,
			"byteLength":2457600,
			"byteOffset":17891640,
			"target":34962
		},
		{
			"buffer":0,
			"byteLength":2457600,
			"byteOffset":20349240,
			"target":34962
		},
		{
			"buffer":0,
			"byteLength":1638400,
			"byteOffset":22806840,
			"target":34962
		},
		{
			"buffer":0,
			"byteLength":71832,
			"byteOffset":24445240,
			"target":34962
		},
		{
			"buffer":0,
			"byteLength":71832,
			"byteOffset":24517072,
			"target":34962
		},
		{
			"buffer":0,
			"byteLength":47888,
			"byteOffset":24588904,
			"target":34962
		},
		{
			"buffer":0,
			"byteLength":48684,
			"byteOffset":24636792,
			"target":34962
		},
		{
			"buffer":0,
			"byteLength":48684,
			"byteOffset":24685476,
			"target":34962
		},
		{
			"buffer":0,
			"byteLength":48378,
			"byteOffset":24734160,
			"target":34963
		},
		{
			"buffer":0,
			"byteLength":196608,
			"byteOffset":24782540,
			"target":34962
		},
		{
			"buffer":0,
			"byteLength":196608,
			"byteOffset":24979148,
			"target":34962
		},
		{
			"buffer":0,
			"byteLength":131072,
			"byteOffset":25175756,
			"target":34962
		},
		{
			"buffer":0,
			"byteLength":193548,
			"byteOffset":25306828,
			"target":34963
		},
		{
			"buffer":0,
			"byteLength":276684,
			"byteOffset":25500376,
			"target":34962
		},
		{
			"buffer":0,
			"byteLength":276684,
			"byteOffset":25777060,
			"target":34962
		},
		{
			"buffer":0,
			"byteLength":184456,
			"byteOffset":26053744,
			"target":34962
		},
		{
			"buffer":0,
			"byteLength":196992,
			"byteOffset":26238200,
			"target":34963
		},
		{
			"buffer":0,
			"byteLength":200208,
			"byteOffset":26435192,
			"target":34962
		},
		{
			"buffer":0,
			"byteLength":200208,
			"byteOffset":26635400,
			"target":34962
		},
		{
			"buffer":0,
			"byteLength":133472,
			"byteOffset":26835608,
			"target":34962
		},
		{
			"buffer":0,
			"byteLength":196992,
			"byteOffset":26969080,
			"target":34963
		},
		{
			"buffer":0,
			"byteLength":53244,
			"byteOffset":27166072,
			"target":34962
		},
		{
			"buffer":0,
			"byteLength":53244,
			"byteOffset":27219316,
			"target":34962
		},
		{
			"buffer":0,
			"byteLength":35496,
			"byteOffset":27272560,
			"target":34962
		},
		{
			"buffer":0,
			"byteLength":51600,
			"byteOffset":27308056,
			"target":34963
		},
		{
			"buffer":0,
			"byteLength":53244,
			"byteOffset":27359656,
			"target":34962
		},
		{
			"buffer":0,
			"byteLength":53244,
			"byteOffset":27412900,
			"target":34962
		},
		{
			"buffer":0,
			"byteLength":35496,
			"byteOffset":27466144,
			"target":34962
		},
		{
			"buffer":0,
			"byteLength":105564,
			"byteOffset":27501640,
			"target":34962
		},
		{
			"buffer":0,
			"byteLength":105564,
			"byteOffset":27607204,
			"target":34962
		},
		{
			"buffer":0,
			"byteLength":70376,
			"byteOffset":27712768,
			"target":34962
		},
		{
			"buffer":0,
			"byteLength":102132,
			"byteOffset":27783144,
			"target":34963
		},
		{
			"buffer":0,
			"byteLength":53244,
			"byteOffset":27885276,
			"target":34962
		},
		{
			"buffer":0,
			"byteLength":53244,
			"byteOffset":27938520,
			"target":34962
		},
		{
			"buffer":0,
			"byteLength":35496,
			"byteOffset":27991764,
			"target":34962
		},
		{
			"buffer":0,
			"byteLength":53244,
			"byteOffset":28027260,
			"target":34962
		},
		{
			"buffer":0,
			"byteLength":53244,
			"byteOffset":28080504,
			"target":34962
		},
		{
			"buffer":0,
			"byteLength":35496,
			"byteOffset":28133748,
			"target":34962
		},
		{
			"buffer":0,
			"byteLength":27792,
			"byteOffset":28169244,
			"target":34962
		},
		{
			"buffer":0,
			"byteLength":27792,
			"byteOffset":28197036,
			"target":34962
		},
		{
			"buffer":0,
			"byteLength":18528,
			"byteOffset":28224828,
			"target":34962
		},
		{
			"buffer":0,
			"byteLength":9744,
			"byteOffset":28243356,
			"target":34963
		}
	],
	"samplers":[
		{
			"magFilter":9729,
			"minFilter":9987
		}
	],
	"buffers":[
		{
			"byteLength":28253100,
			"uri":"castigo.bin"
		}
	]
}
